<svg xmlns="http://www.w3.org/2000/svg" data-name="레이어 1" viewBox="0 0 24 30" x="0px" y="0px">
<path d="M15.56,11.92l-2.86,2.8a1,1,0,0,1-1.4,0l-2.86-2.8a1,1,0,0,1,1.39-1.43L11,11.63V6a1,1,0,0,1,2,0v5.63l1.17-1.14a1,1,0,1,1,1.39,1.43Z"/><path d="M19.5,17H4.5a.5.5,0,0,0-.5.5v1a.5.5,0,0,0,.5.5h15a.5.5,0,0,0,.5-.5v-1a.5.5,0,0,0-.5-.5Z"/>
<text x="0" y="39" fill="#000000" font-size="5px" font-weight="bold"
 font-family="'Helvetica Neue', Helvetica, Arial-Unicode, Arial, Sans-serif"></text><text x="0" y="44" fill="#000000" font-size="5px" font-weight="bold"
  font-family="'Helvetica Neue', Helvetica, Arial-Unicode, Arial, Sans-serif"></text></svg>