<svg xmlns="http://www.w3.org/2000/svg" xmlns:xlink="http://www.w3.org/1999/xlink" version="1.1" x="0px" y="0px" viewBox="0 0 100 125" style="enable-background:new 0 0 100 100;" xml:space="preserve"><g><path d="M98.535,48.537c1.953-1.953,1.953-5.117,0-7.07l-35-35c-1.932-1.933-5.085-1.985-7.07,0l-55,55   c-1.953,1.953-1.953,5.117,0,7.07l25,25c0.938,0.938,2.207,1.465,3.535,1.465h20h50v-5H57.07L98.535,48.537z M50,90.002H30l-25-25   L20.732,49.27l35,35L50,90.002z M15,92.502c0,1.382-1.118,2.5-2.5,2.5s-2.5-1.118-2.5-2.5s1.118-2.5,2.5-2.5S15,91.12,15,92.502z    M5,92.502c0,1.382-1.118,2.5-2.5,2.5S0,93.884,0,92.502s1.118-2.5,2.5-2.5S5,91.12,5,92.502z"/></g>
<text x="0" y="115" fill="#000000" font-size="5px" font-weight="bold" font-family="'Helvetica Neue', Helvetica, Arial-Unicode, Arial, Sans-serif"></text><text x="0" y="120" fill="#000000" font-size="5px" font-weight="bold" font-family="'Helvetica Neue', Helvetica, Arial-Unicode, Arial, Sans-serif"></text></svg>