<svg xmlns="http://www.w3.org/2000/svg" data-name="Layer 1" viewBox="0 0 32 40" x="0px" y="0px"><title>Gallery</title><path d="M27.5,1H4.5A3.5,3.5,0,0,0,1,4.5v23A3.5,3.5,0,0,0,4.5,31h23A3.5,3.5,0,0,0,31,27.5V4.5A3.5,3.5,0,0,0,27.5,1ZM3,27.5V16.33S6.06,12.08,7.78,10c.05-.07.11-.06.15,0,2.14,4,10.38,19,10.38,19H4.5A1.5,1.5,0,0,1,3,27.5Zm26,0A1.5,1.5,0,0,1,27.5,29H20.59L9.69,9a2.09,2.09,0,0,0-3.51-.25L3,13V4.5A1.5,1.5,0,0,1,4.5,3h23A1.5,1.5,0,0,1,29,4.5Z"/><path d="M21.5,6A3.5,3.5,0,1,0,25,9.5,3.5,3.5,0,0,0,21.5,6Zm0,5A1.5,1.5,0,1,1,23,9.5,1.5,1.5,0,0,1,21.5,11Z"/>
<text x="0" y="47" fill="#000000" font-size="5px" font-weight="bold" font-family="'Helvetica Neue', Helvetica, Arial-Unicode, Arial, Sans-serif"></text><text x="0" y="52" fill="#000000" font-size="5px" font-weight="bold" font-family="'Helvetica Neue', Helvetica, Arial-Unicode, Arial, Sans-serif"></text></svg>