<svg xmlns="http://www.w3.org/2000/svg" viewBox="0 0 64 80" x="0px" y="0px"><g data-name="Layer 78"><path d="M54,55.75H17.4l5.26-1.17a1.2,1.2,0,0,0,.61-.34l31.9-31.89A9.56,9.56,0,0,0,41.65,8.83L29.07,21.42h0L9.76,40.73a1.2,1.2,0,0,0-.34.61L6.14,56.1a1.23,1.23,0,0,0-.39.9A1.25,1.25,0,0,0,7,58.25H54a1.25,1.25,0,0,0,0-2.5ZM43.42,10.6a7.06,7.06,0,0,1,10,10l-3.85,3.85c0-.15,0-.3,0-.45a9.54,9.54,0,0,0-10-9.53ZM45,19a7.07,7.07,0,0,1,.35,9.6c0-.14,0-.27,0-.41a9.53,9.53,0,0,0-10-9.53A7.07,7.07,0,0,1,45,19Z"/></g>
<text x="0" y="79" fill="#000000" font-size="5px" font-weight="bold" font-family="'Helvetica Neue', Helvetica, Arial-Unicode, Arial, Sans-serif"></text><text x="0" y="84" fill="#000000" font-size="5px" font-weight="bold" font-family="'Helvetica Neue', Helvetica, Arial-Unicode, Arial, Sans-serif"></text></svg>