<svg xmlns="http://www.w3.org/2000/svg" viewBox="0 0 64 80" x="0px" y="0px"><g data-name="21 Sticky note"><path d="M61.57,45.92,56.99,10.77a3.01,3.01,0,0,0-3.36-2.58l-1.54.2a10.22,10.22,0,0,0-1.82-.35l-.0243.0247a2.395,2.395,0,0,0-.1134-3.28L48.1289,2.7817a2.4743,2.4743,0,0,0-3.4175,0L42.83,4.6631a5.2553,5.2553,0,0,0-4.3593,1.5811L38.47,6.24,12.92,2.34A3.0041,3.0041,0,0,0,9.5,4.85L3.02,47.36a3.01,3.01,0,0,0,2.51,3.42l11.52,1.76.87,6.69a3.0039,3.0039,0,0,0,2.97,2.61c.46,0,30.78-3.99,30.93-4.01A10.62,10.62,0,0,0,61.57,45.92ZM42.9565,6.71a.9931.9931,0,0,0,.9239-.2691l2.2451-2.2451a.4178.4178,0,0,1,.5893,0l2.0035,2.0034a.3993.3993,0,0,1,0,.5894L46.4,9.1069a1,1,0,0,0-.2744.8985,3.3562,3.3562,0,0,1-.4048,2.3886L40.49,7.1631A3.1476,3.1476,0,0,1,42.9565,6.71ZM5.83,48.8a1.0105,1.0105,0,0,1-.84-1.14L11.48,5.15a.9973.9973,0,0,1,1.14-.83l26.1983,4,1.59,1.59L14.96,13.22a3.0323,3.0323,0,0,0-2.59,3.37l4.41,33.88ZM19.9,58.97,14.35,16.33a1.0019,1.0019,0,0,1,.86-1.12c.0553-.0092,13.2556-1.7264,24.2417-3.162l-3.7559,3.7562c-.9288.9033.509,2.3473,1.4141,1.4141l5.3032-5.3037,2.69,2.69a1.006,1.006,0,0,0,1.42-.0054,5.5393,5.5393,0,0,0,1.66-3.69c1.369-.17,5.8273-.75,5.8373-.75a1.01,1.01,0,0,1,.99.87l4.01,30.74c-.16.5-2.47.83-3.59.99-5.89.01-8.85,4.72-7.7,9.96.11,1.56.21,3.04-.26,3.67L21.03,59.83A1.0173,1.0173,0,0,1,19.9,58.97Zm32.74-3.28c-.2536.0777-2.6262.36-2.94.41a14.1765,14.1765,0,0,0,.03-3.52c-.54-5.12.24-7.26,5.98-7.84a15.2268,15.2268,0,0,0,3.58-.79c.0327.2835.3193,2.3747.33,2.61A8.5465,8.5465,0,0,1,52.64,55.69ZM19.9951,29.7021a1.0021,1.0021,0,0,1-.1279-1.9917l32.7236-4.2622a1,1,0,0,1,.2588,1.9834L20.126,29.6938A.98.98,0,0,1,19.9951,29.7021Zm3.9268-9.5791,22.8076-2.97a1,1,0,0,1,.2578,1.9834L24.18,22.1064a.9676.9676,0,0,1-.13.0083A1.0021,1.0021,0,0,1,23.9219,20.123ZM20.8994,36.6436a1.0021,1.0021,0,0,1-.1279-1.9917L53.4951,30.39a1,1,0,0,1,.2588,1.9834L21.03,36.6353A.9972.9972,0,0,1,20.8994,36.6436Zm.9043,6.9414a1.0021,1.0021,0,0,1-.1279-1.9917l32.7231-4.2622a1,1,0,0,1,.2588,1.9834L21.9346,43.5767A.9972.9972,0,0,1,21.8037,43.585Zm10.9507,5.6416c-.178.0143-9.8845,1.3041-10.0469,1.3a1.0021,1.0021,0,0,1-.1274-1.9917l9.9165-1.2915A1,1,0,0,1,32.7544,49.2266Z"/></g>
<text x="0" y="79" fill="#000000" font-size="5px" font-weight="bold" font-family="'Helvetica Neue', Helvetica, Arial-Unicode, Arial, Sans-serif"></text><text x="0" y="84" fill="#000000" font-size="5px" font-weight="bold" font-family="'Helvetica Neue', Helvetica, Arial-Unicode, Arial, Sans-serif"></text></svg>