<svg xmlns="http://www.w3.org/2000/svg" xmlns:xlink="http://www.w3.org/1999/xlink" version="1.1" x="0px" y="0px" viewBox="0 0 1024 1280" style="enable-background:new 0 0 1024 1024;" xml:space="preserve"><path d="M971.1,660.2c-16.8-59.3-45.5-114.6-84.2-162.6c-37.7-46.9-85.1-86.3-138.1-114.8c-55-29.6-115.7-47.5-177.9-52.7  c-68.3-5.7-138.1,4.1-202,29C306,383.6,248.8,421.9,202.4,471c-3.3,3.5-6.6,7.1-9.8,10.7l-3.7-3.7c-26.6-26.6-53.2-53.2-79.8-79.8  c-12.9-12.9-25.4-26.5-38.9-38.9c-0.2-0.2-0.4-0.4-0.6-0.6c-6.1-6.1-17.1-1.6-17.1,7.1v319.7c0,5.4,4.6,10,10,10h319.7  c4.8,0,7.9-2.8,9.1-6.3c1.1-3.1,0.8-6.8-0.9-9.6c0,0,0,0,0,0c-0.6-1-1.4-1.8-2.3-2.5c-10.2-10.2-20.3-20.3-30.5-30.5  c-25.4-25.4-50.9-50.9-76.3-76.3c-4.9-4.9-9.8-9.8-14.7-14.7c32.2-37.3,71.6-67.8,116.2-89.1c48.3-23.1,102-34.5,155.5-33.7  c48.8,0.7,97.5,11.5,141.7,32.1c43,20,81.7,48.5,113.5,83.7c31.8,35.1,56.4,76.8,71.5,121.7c1.9,5.7,3.7,11.5,5.4,17.4  c1.5,5.2,7,8.4,12.3,7c27.1-7.4,54.3-14.8,81.4-22.2c2.7-0.7,4.6-2.2,5.7-4C971.3,666.4,972,663.5,971.1,660.2z"/>
<text x="0" y="1039" fill="#000000" font-size="5px" font-weight="bold" font-family="'Helvetica Neue', Helvetica, Arial-Unicode, Arial, Sans-serif"></text><text x="0" y="1044" fill="#000000" font-size="5px" font-weight="bold" font-family="'Helvetica Neue', Helvetica, Arial-Unicode, Arial, Sans-serif"></text></svg>