<svg xmlns="http://www.w3.org/2000/svg" xmlns:xlink="http://www.w3.org/1999/xlink" version="1.1" x="0px" y="0px" viewBox="0 0 512 640" style="enable-background:new 0 0 512 512;" xml:space="preserve"><g><path d="M241.9,150.6V340H270V150.6l57.6,57.1l19.7-19.9l-81.5-80.7c-5.5-5.4-14.2-5.4-19.7,0l-81.5,80.7l19.7,19.9L241.9,150.6z"/><path d="M392,280v95.4c0,3.3-2.7,5.6-6,5.6H126c-3.3,0-6-2.3-6-5.6V280H92v95.4c0,18.7,15.3,33.6,34,33.6h260   c18.7,0,34-14.9,34-33.6V280H392z"/></g>
<text x="0" y="527" fill="#000000" font-size="5px" font-weight="bold" font-family="'Helvetica Neue', Helvetica, Arial-Unicode, Arial, Sans-serif"></text><text x="0" y="532" fill="#000000" font-size="5px" font-weight="bold" font-family="'Helvetica Neue', Helvetica, Arial-Unicode, Arial, Sans-serif"></text></svg>